# xmcd CD database file
#
# Track frame offsets:
#	150
#	20673
#	45453
#	66052
#	84912
#	108760
#	134804
#	152345
#	176751
#	202485
#	227512
#	251797
#	275794
#
# Disc length: 3889 seconds
#
# Revision: 0
# Processed by: cddbd v1.4PL0 Copyright (c) Steve Scherf et al.
# Submitted via: CDex 1.50Beta7
#
DISCID=b70f2f0d
DTITLE=Paulito F.G y su Elite - Con la conciencia tranquila
DYEAR=1997
DGENRE=Salsa
TTITLE0=Con la conciencia tranquila
TTITLE1=Y ahora qué
TTITLE2=Entre dos amigos
TTITLE3=Mi tentación
TTITLE4=Llamada anónima
TTITLE5=Para volver conmigo
TTITLE6=Desacuerdo
TTITLE7=No me puedo enamorar
TTITLE8=Y San Tomá qué
TTITLE9=No te lo creas
TTITLE10=De la Habana
TTITLE11=bonus1
TTITLE12=bonus2
EXTD=YEAR: 1997
EXTT0=
EXTT1=
EXTT2=
EXTT3=
EXTT4=
EXTT5=
EXTT6=
EXTT7=
EXTT8=
EXTT9=
EXTT10=
EXTT11=
EXTT12=
PLAYORDER=
